<svg width="96" height="43" viewBox="0 0 96 43" fill="none" xmlns="http://www.w3.org/2000/svg">
<path d="M76.8718 30.8735C76.7582 30.9172 76.6656 31.0026 76.613 31.1123C76.4956 31.272 76.34 31.3996 76.1604 31.4833L76.1683 31.4769C76.0561 31.6313 75.8687 31.6663 75.7186 31.7629L75.0409 32.2168C73.8527 32.8877 72.5711 33.3778 71.2384 33.6709C70.2261 33.8937 69.1924 34.0054 68.1558 34.004C65.0703 34.0205 61.9856 34.004 58.8987 34.004H58.4133C58.1624 33.9947 58.0558 33.8811 58.0558 33.6151C58.0666 32.3955 58.0737 31.1759 58.0558 29.957C58.0558 29.6318 58.1917 29.6046 58.449 29.606C60.2999 29.6125 62.1521 29.606 64.0044 29.606H68.8078C68.9532 29.63 69.1023 29.6175 69.2417 29.5696L69.4004 29.5603C69.5362 29.4652 69.7178 29.5724 69.8601 29.4816C69.8647 29.4864 69.8703 29.4902 69.8764 29.4928C69.8826 29.4953 69.8892 29.4967 69.8958 29.4967C69.9025 29.4967 69.9091 29.4953 69.9152 29.4928C69.9214 29.4902 69.9269 29.4864 69.9316 29.4816C70.4398 29.4129 70.9304 29.2482 71.3771 28.9962C71.7783 28.9395 72.1485 28.7485 72.4273 28.4543C72.7962 28.1602 73.1807 27.886 73.579 27.6329C73.731 27.5566 73.8545 27.4336 73.9314 27.2819C74.2725 26.8667 74.5792 26.4244 74.8486 25.9594C75.3451 25.1186 75.6529 24.18 75.7508 23.2085C75.8329 22.4851 75.827 21.7543 75.7329 21.0323C75.7023 20.4202 75.5547 19.8196 75.2982 19.263C75.0909 18.9163 75.1109 18.4502 74.7564 18.1792C74.4751 17.5642 74.0581 17.0208 73.5368 16.59L73.4531 16.5085C73.3133 16.3979 73.1592 16.3068 72.9949 16.2376C72.921 16.2044 72.8625 16.1443 72.8312 16.0696L72.7497 15.9788C71.8168 15.4573 70.8091 15.0826 69.7622 14.8679C69.3633 14.7868 68.958 14.7414 68.5511 14.732C66.8483 14.7427 65.1447 14.732 63.4418 14.7399C63.2524 14.7399 63.0129 14.657 62.9364 14.9543C62.8863 15.7822 62.9364 16.6115 62.9135 17.4393C62.9433 17.6701 62.9086 17.9047 62.8134 18.117C62.7576 18.1759 62.6879 18.2198 62.6107 18.2448C62.5336 18.2697 62.4513 18.275 62.3716 18.26H58.4397C58.1688 18.26 58.0444 18.1935 58.0451 17.889C58.0544 15.4769 58.0451 13.067 58.0451 10.655C58.0451 10.5706 58.0222 10.4763 58.1116 10.4141L58.0937 10.432C58.8232 10.3298 59.563 10.3238 60.2941 10.4141C61.1067 10.4554 61.9208 10.4554 62.7333 10.4141C62.8878 10.4581 63.0496 10.47 63.2088 10.4491H68.7313C68.8899 10.4209 69.0531 10.4359 69.2038 10.4927H69.4369C69.6442 10.5892 69.8801 10.4641 70.0846 10.5728L70.2204 10.5821C70.3691 10.6636 70.5507 10.5621 70.6972 10.6636C71.5251 10.8966 72.3736 11.0525 73.1779 11.3656C73.3492 11.4733 73.5439 11.5383 73.7455 11.5551C74.1381 11.6693 74.5057 11.8563 74.8293 12.1062C75.6392 12.5851 76.4048 13.1354 77.1169 13.7505C77.2378 13.8039 77.3344 13.9005 77.3879 14.0214C77.9213 14.6016 78.4114 15.2202 78.8541 15.8723C78.9904 15.9989 79.091 16.1591 79.1458 16.337C79.1458 16.3991 79.1458 16.4563 79.2123 16.4885C79.4296 16.7551 79.5871 17.0652 79.6741 17.3978C80.0092 18.3365 80.2807 19.2966 80.4869 20.2717C80.5899 20.4504 80.4777 20.6578 80.5656 20.8379C80.5656 20.9137 80.572 20.9895 80.5763 21.0667C80.6441 21.8 80.6441 22.538 80.5763 23.2714C80.5763 23.3486 80.5684 23.4258 80.5656 23.503C80.4762 23.6817 80.587 23.8876 80.4869 24.0656C80.2789 25.0447 80.0105 26.01 79.6834 26.9559C79.5332 27.4029 79.3132 27.8232 79.0314 28.2013L78.3537 29.25C78.2573 29.4238 78.1278 29.577 77.9727 29.7011L77.9104 29.7769C77.6144 30.189 77.2544 30.551 76.8439 30.8492" fill="#54585A"/>
<path d="M8.13208 32.2802L8.06559 32.3381C7.97322 32.4661 7.85036 32.5691 7.70815 32.6376L7.1055 33.0859C6.95499 33.1881 6.79304 33.2723 6.62295 33.3368L6.13754 33.6077C4.29106 34.3423 2.27231 34.5304 0.321907 34.1496C0.274567 34.1471 0.228279 34.1346 0.186022 34.1131C0.143764 34.0917 0.106464 34.0616 0.0765126 34.0248C0.046561 33.9881 0.0246136 33.9455 0.0120878 33.8997C-0.000437998 33.854 -0.0032656 33.8062 0.00377561 33.7593V29.9754C0.00377561 29.7516 0.0631164 29.6272 0.312613 29.7438C0.642693 29.8688 0.99341 29.9304 1.34634 29.9253C1.86113 29.987 2.38144 29.987 2.89623 29.9253C3.38053 29.8808 3.84721 29.7214 4.25751 29.4603C4.66782 29.1992 5.00991 28.8439 5.25536 28.4241C5.56796 27.8936 5.73606 27.2904 5.74292 26.6747V10.9572C5.74292 10.3774 5.74292 10.3666 6.32984 10.3802C6.97347 10.3514 7.61829 10.3655 8.26004 10.4224C8.83625 10.4672 9.41498 10.4694 9.99151 10.4288C10.5077 10.5003 10.5077 10.5003 10.5077 11.0251C10.5077 16.3296 10.5212 21.6326 10.4969 26.9364C10.4988 28.2322 10.1438 29.5035 9.47107 30.6109L9.47893 30.603C9.39438 30.8014 9.27772 30.9845 9.13364 31.1449C8.87194 31.5836 8.53284 31.9711 8.1328 32.2888" fill="#54585A"/>
<path d="M18.0449 33.7951V10.4489C18.1385 10.3002 18.2858 10.3775 18.4023 10.3775C19.6798 10.3775 20.958 10.3853 22.2341 10.3639C22.6037 10.3639 22.7181 10.4725 22.7152 10.8364C22.7002 12.377 22.7081 13.9205 22.7081 15.4625V33.2089C22.7136 33.3708 22.711 33.5328 22.7002 33.6943C22.6866 33.8302 22.6287 33.9167 22.4793 33.9167C21.0553 33.9167 19.6341 33.926 18.2071 33.9102C18.1706 33.9057 18.1356 33.8925 18.1051 33.8717C18.0746 33.851 18.0496 33.8232 18.032 33.7908" fill="#54585A"/>
<path d="M93.6431 4.00108C94.3122 4.72741 95.0013 5.43087 95.727 6.10143C95.8176 6.16327 95.8899 6.2483 95.9364 6.34764C95.983 6.44699 96.002 6.557 95.9915 6.6662C95.9807 7.42899 95.9779 8.1932 95.9915 8.95385C95.9915 9.2155 95.9278 9.31129 95.6483 9.31129C92.7273 9.30319 89.8055 9.30319 86.883 9.31129C86.5971 9.31129 86.5399 9.19905 86.5442 8.94527C86.5563 8.18248 86.5577 7.41826 86.5442 6.65762C86.5442 6.38668 86.6293 6.30017 86.8981 6.3066C87.8088 6.32019 88.7189 6.3066 89.6297 6.3066C89.7962 6.3066 89.9928 6.36594 90.09 6.15362C90.0721 6.03584 90.0094 5.92954 89.9149 5.85694C89.3866 5.33936 88.8983 4.7846 88.4043 4.23128C88.3286 4.14692 88.1999 4.07257 88.2485 3.94032C88.3093 3.77232 88.4751 3.84023 88.5938 3.84023H93.1691C93.3464 3.84023 93.5265 3.83308 93.6431 4.00108Z" fill="#54585A"/>
<path d="M86.7191 0.0142981C87.1717 0.0235917 87.6256 0.0414627 88.0775 0.0414627H95.2471C95.4086 0.0414627 95.568 0.0235917 95.7282 0.0142981C95.9176 0.0428938 95.9884 0.141548 95.9855 0.343862C95.9746 1.09164 95.9746 1.84013 95.9855 2.58933C95.9855 2.81595 95.9005 2.91461 95.681 2.91461H87.1445C86.5497 2.91461 86.5497 2.91461 86.5497 2.30624V0.406773C86.5497 0.256646 86.4875 0.0679146 86.7163 0" fill="#54585A"/>
<path d="M52.2874 18.6155C52.4337 19.0573 52.5805 19.4986 52.7278 19.9394C52.9487 20.0624 52.9108 20.2697 52.8972 20.4692C52.9085 20.7718 52.9684 21.0706 53.0745 21.3542C53.1624 21.4972 53.0638 21.6723 53.146 21.8174C53.146 21.8975 53.1553 21.979 53.1596 22.0584C53.2233 22.9389 53.2233 23.8229 53.1596 24.7035C53.1596 24.7821 53.1517 24.8607 53.146 24.9394C53.0645 25.0874 53.161 25.2632 53.0702 25.4098C52.9131 26.1901 52.7058 26.9595 52.4497 27.7132C52.2638 28.1671 52.0922 28.6254 51.9078 29.0815C51.8499 29.2556 51.7542 29.4147 51.6276 29.5476C51.5597 29.5733 51.5561 29.6305 51.5561 29.6905C51.4252 29.996 51.2418 30.2762 51.0142 30.5184C50.8407 30.7486 50.6682 30.9795 50.4966 31.2111C50.4307 31.3511 50.3327 31.4735 50.2107 31.5686L50.2214 31.5578C50.1373 31.6614 50.044 31.7571 49.9426 31.8438L49.1705 32.6137C49.0849 32.7166 48.9891 32.8104 48.8845 32.894L48.8953 32.8832C48.777 33.0369 48.6248 33.1612 48.4506 33.2464L48.4585 33.24C48.3622 33.3571 48.2398 33.4499 48.101 33.5109L48.1089 33.5045C47.9719 33.5889 47.8699 33.7198 47.8216 33.8733C47.7732 34.0268 47.7818 34.1925 47.8458 34.3402C47.8347 34.6009 47.8696 34.8615 47.9488 35.1101C47.9716 35.2023 47.9287 35.2267 47.8458 35.2145L47.2331 34.2308C46.7913 33.8784 46.7327 33.32 46.5004 32.8582C46.4477 32.7541 46.4025 32.6464 46.3653 32.5358L46.3731 32.5437C46.0454 32.0799 45.7727 31.5797 45.5603 31.0531C45.4525 30.9232 45.3635 30.7788 45.2958 30.6242C45.2636 30.562 45.2322 30.4984 45.2007 30.4362C45.0274 30.2723 44.9066 30.0605 44.854 29.8278C44.7181 29.6748 44.6996 29.5082 44.8962 29.421C45.0627 29.3495 45.1385 29.1815 45.303 29.1108C45.7233 28.7669 46.0278 28.3044 46.4561 27.9669L47.0673 27.0726C47.146 26.7535 47.2956 26.4561 47.5048 26.2026L47.7757 25.4977C47.7744 24.9901 47.8597 24.486 48.0281 24.0072C48.063 23.4313 48.027 22.8534 47.9209 22.2864C47.9059 21.9704 47.7271 21.6723 47.8029 21.3378L47.4211 20.3741C47.286 20.1382 47.4591 20.0381 47.6192 19.9244C47.759 19.8489 47.9097 19.7958 48.066 19.7671L50.1577 18.5189C50.5776 18.1888 51.0437 17.9222 51.5411 17.7276L51.747 17.6289C52.1859 17.8133 52.2602 18.2008 52.2888 18.6083" fill="#54585A"/>
<path d="M49.8024 14.5653L50.9205 15.9801C51.1835 16.2374 51.4866 16.0737 51.7783 16.0637C51.9299 16.073 52.1007 16.0123 52.2144 16.1738C52.1043 16.5477 51.714 16.567 51.4581 16.7364C50.7653 17.1875 50.019 17.5493 49.3062 17.9668C48.9255 18.0733 48.571 18.2578 48.2653 18.5086C47.9215 18.731 47.5254 18.8475 47.2016 19.102C47.0658 19.2128 46.8341 19.2929 46.7355 19.102C46.5082 18.6681 46.0335 18.445 45.8469 17.9896C45.3788 17.693 44.9314 17.3648 44.5079 17.0074C43.6609 16.4598 42.7004 16.1124 41.6991 15.9915C40.6565 15.8403 39.5935 15.9162 38.5829 16.2139C38.3563 16.2762 38.1387 16.3673 37.9352 16.4848C37.7493 16.6013 37.5284 16.6857 37.3718 16.4076V16.414C37.0263 16.0234 36.7537 15.574 36.5669 15.0872C36.5369 15.03 36.5075 14.9749 36.4761 14.9192C35.8706 14.1185 35.4753 13.1913 34.9341 12.3527C34.9341 12.2169 34.9055 12.0739 35.0821 12.0196L35.0728 12.026C35.3291 11.8845 35.5969 11.7649 35.8734 11.6686H35.8656C36.0104 11.5856 36.1664 11.5239 36.3288 11.4856C37.1871 11.2153 38.0627 11.0035 38.9496 10.8515C39.1205 10.7578 39.3221 10.8729 39.4915 10.7757L39.7424 10.7635C40.3574 10.7019 40.9769 10.7019 41.5919 10.7635L41.8399 10.7743C42.0415 10.8772 42.2731 10.7499 42.4755 10.8543C43.447 11.0452 44.4057 11.2883 45.355 11.5735C45.5196 11.6086 45.6771 11.6709 45.8211 11.7579H45.814C46.1935 11.8841 46.5528 12.0644 46.8806 12.2934H46.8727C47.036 12.3603 47.1881 12.4516 47.3238 12.5643L48.9874 13.7839C49.3018 14.0002 49.5767 14.2689 49.8002 14.5782" fill="#54585A"/>
<path d="M45.919 34.7597C45.0026 35.1735 44.0502 35.5023 43.0737 35.7419C42.9379 35.7705 42.7877 35.7812 42.6526 35.8234C42.4196 35.8511 42.1889 35.8965 41.9628 35.9592C41.3058 35.9514 40.6481 35.9592 39.9911 35.9592C39.8553 35.9592 39.6987 36.0064 39.5686 35.9078C39.3413 35.7991 39.0832 35.9363 38.8537 35.8263C37.8248 35.6956 36.8205 35.4152 35.8726 34.9941L35.5152 34.8512C35.3793 34.8104 35.2235 34.8211 35.1577 34.656L34.8868 34.4866C34.6523 34.508 34.5179 34.3386 34.3635 34.2156C34.1161 33.9903 33.8485 33.788 33.5642 33.6115L33.5721 33.6208C33.4622 33.4564 33.3041 33.3301 33.1196 33.2591L33.1303 33.267C33.0277 33.1303 32.903 33.0116 32.7614 32.9159C32.7394 32.9038 32.715 32.8965 32.6899 32.8945C32.5469 32.8945 32.4812 32.793 32.419 32.6872C32.3839 32.5385 32.2553 32.4727 32.148 32.3834C32.1278 32.3671 32.1025 32.3585 32.0765 32.3591C31.7255 32.2833 31.5804 31.9744 31.3709 31.74C31.2129 31.4453 30.9704 31.2046 30.6746 31.0487C30.4823 30.9321 30.3808 30.7069 30.1649 30.6197C29.8527 30.5311 29.5204 30.5444 29.2163 30.6576C29.0633 30.6955 28.9046 30.7756 28.7787 30.6004C28.7623 30.5068 28.8345 30.4896 28.8967 30.4646H28.8888C29.0111 30.2923 29.2205 30.2751 29.3893 30.1843L31.1765 29.2035C31.3824 29.0856 31.5976 28.9855 31.8049 28.8718L31.7984 28.8782C31.9918 28.7213 32.2116 28.6003 32.4476 28.5208L33.6579 27.8667C33.7529 27.7406 33.8925 27.6557 34.0482 27.6293C34.455 27.2512 34.5701 27.6972 34.7717 27.8924C34.9425 27.9503 34.9862 28.1119 35.0641 28.2499C35.5496 28.8822 36.1728 29.3956 36.8863 29.7511C37.0397 29.7797 37.1777 29.8624 37.2752 29.9842C37.3052 30.024 37.3448 30.0556 37.3903 30.0759C37.4358 30.0963 37.4858 30.1048 37.5354 30.1007C37.6884 30.075 37.7714 30.2079 37.8929 30.2594C38.0763 30.3781 38.2853 30.4516 38.5027 30.4739C39.0113 30.4972 39.5153 30.5815 40.0039 30.7248C40.7887 30.7879 41.5786 30.7183 42.3402 30.5189C42.4832 30.4875 42.6262 30.4946 42.7613 30.4553C43.0944 30.3693 43.4164 30.2448 43.7207 30.0843C43.8958 30.0492 43.9208 30.1901 43.9737 30.2987C43.9716 30.3105 43.9729 30.3226 43.9775 30.3336C43.982 30.3446 43.9897 30.3541 43.9995 30.3609C44.0894 30.423 44.1652 30.5034 44.222 30.5967C44.2788 30.6901 44.3153 30.7944 44.329 30.9028C44.608 31.4787 44.9249 32.0354 45.2777 32.5692C45.4293 32.6815 45.465 32.8673 45.5637 33.0153C45.7195 33.0775 45.7066 33.2362 45.7545 33.3592C45.9255 33.7284 46.1276 34.0824 46.3586 34.4172C46.3665 34.7218 46.0669 34.6446 45.9297 34.7654" fill="#E8C02A"/>
<path d="M29.681 17.2918C30.1122 16.4584 30.6493 15.6842 31.2788 14.9885C31.6611 14.5584 32.0683 14.1511 32.4984 13.7689C32.8111 13.5229 33.1273 13.2808 33.4471 13.0425C33.7409 12.8245 33.8424 12.9231 33.9661 13.1783C34.0375 13.3142 34.1205 13.4493 34.1977 13.5944C34.6505 14.0337 34.9819 14.5827 35.1599 15.1879L35.2615 15.3602C35.3779 15.4438 35.476 15.5504 35.5498 15.6733C35.6235 15.7963 35.6714 15.933 35.6904 16.0751C35.7831 16.3319 35.9209 16.5701 36.0972 16.7785C36.2201 16.865 36.2122 17.028 36.3016 17.136V17.1281C36.4374 17.4084 36.2001 17.5249 36.0471 17.6486C35.6403 17.9781 35.2829 18.3635 34.8818 18.703L34.8883 18.6937C34.6566 19.1184 34.4034 19.5309 34.1298 19.9298C33.9818 20.1628 33.9575 20.4231 33.8381 20.6547C33.758 20.8091 33.7352 20.9978 33.5564 21.0836C33.3951 21.4419 33.3115 21.8302 33.3112 22.2231C33.2219 22.359 33.3112 22.5348 33.2397 22.6785C33.0916 23.9069 33.2985 25.1521 33.836 26.2666C33.8199 26.3306 33.7908 26.3907 33.7504 26.443C33.7101 26.4952 33.6594 26.5386 33.6015 26.5704C32.5056 27.1194 31.5011 27.825 30.4324 28.4184C30.1037 28.6079 29.7645 28.7785 29.4165 28.9295L29.4244 28.9217C29.2956 29.0446 29.141 29.1372 28.9718 29.1926L28.9783 29.1848C28.8141 29.3525 28.6056 29.47 28.3771 29.5236C28.3091 29.5036 28.2577 29.4707 28.2806 29.3878L28.638 28.9324C28.7334 28.8274 28.8204 28.715 28.8982 28.5964L28.9904 28.4935C29.1263 28.2404 28.9239 28.0231 28.9189 27.7864L28.9254 27.7957C28.8427 27.5917 28.7793 27.3803 28.7359 27.1645C28.4542 26.2218 28.2726 25.2521 28.1941 24.2713C28.1154 24.094 28.2119 23.8946 28.1226 23.7187V21.9236C28.194 21.7749 28.1226 21.6041 28.1876 21.4532C28.2614 20.7298 28.4471 20.0222 28.7381 19.3557C28.7796 19.1952 28.8415 19.0407 28.9225 18.896V18.9039C28.9992 18.6874 29.0897 18.4761 29.1935 18.2712C29.2778 18.0961 29.3629 17.9231 29.4465 17.7479C29.5509 17.6121 29.6103 17.4498 29.701 17.3047" fill="#54585A"/>
<path d="M38.1319 39.6037C38.0236 39.664 37.9394 39.7596 37.8931 39.8746C37.8002 40.047 37.6701 40.1965 37.5121 40.3121C37.2614 40.5542 37.0345 40.8197 36.8343 41.1049C36.7271 41.2669 36.6006 41.4153 36.4576 41.5467C36.0269 41.9927 35.6212 42.4622 35.2423 42.9529C35.0993 43.063 35.0392 42.9608 34.9971 42.8486C34.9303 42.6605 34.9199 42.457 34.967 42.2631C34.9846 41.746 34.9238 41.2292 34.7869 40.7303C34.6854 39.7645 34.5066 38.808 34.3579 37.8472C34.2657 37.7113 34.3715 37.5312 34.2807 37.3889C34.2493 37.1895 34.22 36.9893 34.19 36.7898C34.149 36.7609 34.1175 36.7205 34.0994 36.6737C34.0814 36.6268 34.0776 36.5758 34.0884 36.5268C34.1331 36.4137 34.1374 36.2887 34.1006 36.1729C33.9962 36.0299 34.1006 35.8505 34.0177 35.7068C34.0177 35.6553 34.0112 35.6053 34.0084 35.5538C33.8961 35.3629 34.0398 35.1334 33.9219 34.944C34.0649 34.7696 34.1671 34.9547 34.2657 35.0012C34.866 35.3143 35.4871 35.5858 36.1244 35.814C36.2217 35.7683 36.3196 35.7204 36.3768 35.8669C37.2491 36.2082 38.1713 36.405 39.107 36.4496C39.2793 36.5418 39.4758 36.4417 39.6489 36.5175C39.9684 36.599 40.3101 36.4689 40.6233 36.6204C40.6328 36.6656 40.6331 36.7123 40.6241 36.7577C40.615 36.803 40.5968 36.846 40.5706 36.8841C40.5444 36.9221 40.5107 36.9545 40.4715 36.9791C40.4324 37.0037 40.3887 37.02 40.343 37.0272C39.8073 37.5601 39.3092 38.1295 38.8525 38.7315C38.7717 38.8627 38.67 38.9798 38.5515 39.0782L38.4085 39.2405C38.3299 39.3763 38.3206 39.5629 38.1226 39.5979" fill="#E8C02A"/>
<path d="M93.6273 10.4338C93.6273 10.5954 93.6466 10.7562 93.6466 10.9192C93.6466 18.387 93.6501 25.8545 93.6573 33.3218C93.6573 33.7457 93.5515 33.8637 93.1247 33.8572C91.8901 33.8272 90.6548 33.8394 89.4201 33.8572C89.1492 33.8572 89.0405 33.795 89.0405 33.4912C89.0486 25.9353 89.0486 18.3791 89.0405 10.8227C89.0405 10.5082 89.1392 10.4281 89.4473 10.4324C90.8428 10.4474 92.2397 10.4417 93.6366 10.4431L93.6502 10.4238L93.6273 10.4338Z" fill="#54585A"/>
</svg>
